# xmcd
#
# Track frame offsets:
#	150
#	12545
#	23509
#	36676
#	48338
#	60275
#	72262
#	83424
#	95961
#	107803
#	120173
#	132787
#	144894
#	157829
#	171681
#	181963
#	192275
#	201507
#	207986
#	218878
#	229078
#	239975
#	251422
#	262626
#	274958
#	283210
#	293635
#	308294
#	319144
#
# Disc length: 4362 seconds
#
# Revision: 1
# Processed by: cddbd v1.5.1PL2 Copyright (c) Steve Scherf et al.
# Submitted via: audiograbber 1.83.01
#
DISCID=a811081d
DTITLE=Hank Williams - Original Singles Collection Disc 3
DYEAR=1900
DGENRE=Country
TTITLE0=Half As Much
TTITLE1=Let's Turn Back The Years
TTITLE2=Jambalaya (On The Bayou)
TTITLE3=Window Shopping
TTITLE4=Settin' The Woods On Fire
TTITLE5=You Win Again
TTITLE6=I'll Never Get Out Of This World Alive
TTITLE7=I Could Never Be Ashamed Of You
TTITLE8=Kaw-Liga
TTITLE9=Your Cheatin' Heart
TTITLE10=I Won't Be Home No More
TTITLE11=Take These Chains From My Heart
TTITLE12=Please Make Up Your Mind
TTITLE13=Ramblin' Man
TTITLE14=House Of Gold
TTITLE15=With Tears In My Eyes
TTITLE16=Alone And Foresaken
TTITLE17=Fool About You
TTITLE18=I'm Free At Last
TTITLE19=Someday You'll Call My Name
TTITLE20=I Can't Escape From You
TTITLE21=Something Got A Hold Of Me
TTITLE22=Weary Blues From Waitin'
TTITLE23=I Ain't Got Nothin' But Time
TTITLE24=Angel Of Death
TTITLE25=There's No Room In My Heart For This
TTITLE26=At The First Fall Of Snow
TTITLE27=Log Train, The
TTITLE28=All The Love I Ever Had
EXTD=
EXTT0=
EXTT1=
EXTT2=
EXTT3=
EXTT4=
EXTT5=
EXTT6=
EXTT7=
EXTT8=
EXTT9=
EXTT10=
EXTT11=
EXTT12=
EXTT13=
EXTT14=
EXTT15=
EXTT16=
EXTT17=
EXTT18=
EXTT19=
EXTT20=
EXTT21=
EXTT22=
EXTT23=
EXTT24=
EXTT25=
EXTT26=
EXTT27=
EXTT28=
PLAYORDER=
